<svg width="21" height="20" viewBox="0 0 21 20" fill="none" xmlns="http://www.w3.org/2000/svg">
<g clip-path="url(#clip0_84_217)">
<path d="M17.715 3.46302C16.4465 2.87812 15.0863 2.44719 13.664 2.20038C13.6381 2.19561 13.6123 2.20752 13.5989 2.23133C13.424 2.544 13.2302 2.95192 13.0945 3.27254C11.5648 3.0424 10.043 3.0424 8.54468 3.27254C8.40895 2.94479 8.20814 2.544 8.03242 2.23133C8.01907 2.20831 7.9932 2.19641 7.9673 2.20038C6.54587 2.4464 5.18563 2.87733 3.91638 3.46302C3.90539 3.46778 3.89597 3.47572 3.88972 3.48603C1.30963 7.35967 0.602835 11.1381 0.949565 14.8697C0.951134 14.8879 0.961332 14.9054 0.975452 14.9165C2.67772 16.1728 4.32666 16.9354 5.94498 17.441C5.97088 17.4489 5.99832 17.4394 6.0148 17.4179C6.39762 16.8926 6.73886 16.3387 7.03144 15.7561C7.04871 15.722 7.03223 15.6815 6.99694 15.668C6.45567 15.4617 5.94027 15.2101 5.44449 14.9244C5.40528 14.9014 5.40214 14.845 5.43821 14.8181C5.54254 14.7395 5.6469 14.6578 5.74652 14.5752C5.76455 14.5601 5.78966 14.557 5.81085 14.5665C9.06789 16.0609 12.594 16.0609 15.8126 14.5665C15.8338 14.5562 15.859 14.5594 15.8778 14.5744C15.9774 14.657 16.0817 14.7395 16.1869 14.8181C16.2229 14.845 16.2206 14.9014 16.1814 14.9244C15.6856 15.2157 15.1702 15.4617 14.6281 15.6672C14.5928 15.6807 14.5771 15.722 14.5944 15.7561C14.8933 16.3378 15.2345 16.8918 15.6103 17.4172C15.626 17.4394 15.6542 17.4489 15.6801 17.441C17.3063 16.9354 18.9552 16.1728 20.6575 14.9165C20.6724 14.9054 20.6818 14.8887 20.6834 14.8705C21.0983 10.5563 19.9883 6.80891 17.7408 3.48682C17.7353 3.47572 17.726 3.46778 17.715 3.46302ZM7.51783 12.5975C6.53724 12.5975 5.72926 11.6928 5.72926 10.5817C5.72926 9.47068 6.52157 8.56598 7.51783 8.56598C8.52192 8.56598 9.32208 9.47862 9.30638 10.5817C9.30638 11.6928 8.51407 12.5975 7.51783 12.5975ZM14.1308 12.5975C13.1502 12.5975 12.3422 11.6928 12.3422 10.5817C12.3422 9.47068 13.1345 8.56598 14.1308 8.56598C15.1349 8.56598 15.935 9.47862 15.9194 10.5817C15.9194 11.6928 15.1349 12.5975 14.1308 12.5975Z" fill="#CCCED1"/>
</g>
<defs>
<clipPath id="clip0_84_217">
<rect width="19.9017" height="20" fill="white" transform="translate(0.867321)"/>
</clipPath>
</defs>
</svg>
