<svg width="19" height="16" viewBox="0 0 19 16" fill="none" xmlns="http://www.w3.org/2000/svg">
<path d="M1.28909 16H4.29696V7.75965L0 4.1242V14.5458C0 15.3505 0.577941 16 1.28909 16Z" fill="#3D87CB"/>
<path d="M14.6097 16H17.6175C18.3308 16 18.9066 15.348 18.9066 14.5458V4.1242L14.6097 7.75965" fill="#3D87CB"/>
<path d="M14.6097 1.45831V7.75965L18.9066 4.1242V2.1854C18.9066 0.387059 17.0869 -0.638137 15.8128 0.440379" fill="#3D87CB"/>
<path d="M4.29696 7.75965L4.29696 1.4582L9.45332 5.82074L14.6097 1.45831V7.75965L9.45332 12.1222" fill="#3D87CB"/>
<path d="M0 2.1854V4.1242L4.29696 7.75965L4.29696 1.4582L3.09381 0.440379C1.81762 -0.638137 0 0.387059 0 2.1854Z" fill="#3D87CB"/>
</svg>
