<svg width="163" height="452" viewBox="0 0 163 452" fill="none" xmlns="http://www.w3.org/2000/svg">
<mask id="mask0_4_72" style="mask-type:alpha" maskUnits="userSpaceOnUse" x="0" y="0" width="163" height="452">
<path d="M0 23C0 10.2975 10.2975 0 23 0H163V452H23C10.2974 452 0 441.703 0 429V23Z" fill="#AF94F5"/>
</mask>
<g mask="url(#mask0_4_72)">
<rect x="-11" y="-24.1635" width="185" height="503.17" fill="url(#paint0_linear_4_72)"/>
<g filter="url(#filter0_d_4_72)">
<path d="M102 196.151C138 110.868 106.5 7.10693 127 -29.849L-30 -49.0377C-34.5 89.5472 -38.7 357.052 -19.5 318.39C4.50004 270.063 66 281.434 102 196.151Z" fill="#906EE8"/>
<path d="M79.5 379.509C134.5 351.082 169 286.409 176.5 231.686L207 504.591L0.500031 490.377C8.50003 462.897 35.5 402.252 79.5 379.509Z" fill="#906EE8"/>
</g>
</g>
<defs>
<filter id="filter0_d_4_72" x="-48.702" y="-64.9377" width="272.602" height="585.429" filterUnits="userSpaceOnUse" color-interpolation-filters="sRGB">
<feFlood flood-opacity="0" result="BackgroundImageFix"/>
<feColorMatrix in="SourceAlpha" type="matrix" values="0 0 0 0 0 0 0 0 0 0 0 0 0 0 0 0 0 0 127 0" result="hardAlpha"/>
<feOffset dx="1"/>
<feGaussianBlur stdDeviation="7.95"/>
<feComposite in2="hardAlpha" operator="out"/>
<feColorMatrix type="matrix" values="0 0 0 0 0.298039 0 0 0 0 0.211765 0 0 0 0 0.529412 0 0 0 1 0"/>
<feBlend mode="normal" in2="BackgroundImageFix" result="effect1_dropShadow_4_72"/>
<feBlend mode="normal" in="SourceGraphic" in2="effect1_dropShadow_4_72" result="shape"/>
</filter>
<linearGradient id="paint0_linear_4_72" x1="81.5" y1="-24.1635" x2="81.5" y2="479.006" gradientUnits="userSpaceOnUse">
<stop stop-color="#AF94F5"/>
<stop offset="1" stop-color="#D0BFFD"/>
</linearGradient>
</defs>
</svg>
